:SAMPLES-PER-SECOND 30
:FULLY-SPECIFIED
:DEGREES
96
root  34.72305959 36.55513553 -14.2595171 10.02722454 -5.914820194 3.786038399
lowerback  -7.761149406 -0.7363959551 -1.408380032
upperback  -4.211289883 -0.3506389856 -4.114920139
thorax  -0.01666969992 0.01909969933 -3.486989975
lowerneck  -4.383430004 -15.40279961 -10.63879967
upperneck  8.921509743 -21.02709961 11.16699982
head  5.70855999 -10.05930042 3.408839941
lclavicle  0 -4.497500157e-015 -2.743230041e-014
lhumerus  -48.13090134 29.42020035 62.45019913
lradius  0.006620147731 -6.507048965e-006 29.81030083
lwrist  4.824992743e-007 -3.790274832e-007 -28.82889748
lhand  -3.515113215e-031 -36.9966011 -10.67780018
lfingers  90 7.125020027 -90
lthumb  94.86194611 -25.51012802 101.1726227
rclavicle  0 -4.497500157e-015 -2.743230041e-014
rhumerus  -9.494150162 -36.27079773 -34.36100006
rradius  -5.16745672e-007 2.214343908e-008 106.5770035
rwrist  -2.867388866e-005 0.1017204151 -178.6710052
rhand  -3.094559782e-031 4.305520058 -6.522260189
rfingers  -90 -7.125020027 -90
rthumb  -84.58030701 -9.399525642 -59.8468132
rfemur  -12.14091301 14.7399826 12.2383709
rtibia  -0.4330039918 -1.927781701 18.95409584
rfoot  1.418208361 -23.2060833 -33.56951904
rtoes  4.183006287 19.572258 -102.3140106
lfemur  -5.013415337 -16.10243034 -22.43475914
ltibia  6.13793087 -0.8039489985 8.902088165
lfoot  0.7675833106 -21.05143166 37.0559082
ltoes  -8.508223534 -18.16744614 -115.6314621
97
root  34.72341703 36.554703 -14.259029 10.04535103 -5.891254902 3.790575743
lowerback  -7.752830029 -0.7228310108 -1.401119947
upperback  -4.227039814 -0.3305119872 -4.138609886
thorax  -0.03681879863 0.03010159917 -3.514230013
lowerneck  -4.308859825 -15.41129971 -10.6807003
upperneck  8.871939659 -21.04400063 11.23019981
head  5.694270134 -10.06900024 3.437560081
lclavicle  0 -4.497500157e-015 -2.743230041e-014
lhumerus  -48.18510056 29.35460091 62.41989899
lradius  0.006620147731 -6.507048965e-006 29.83919907
lwrist  4.824992743e-007 -3.790274832e-007 -28.76589966
lhand  -3.515213817e-031 -37.00920105 -10.67479992
lfingers  90 7.125020027 -90
lthumb  94.86723328 -25.50673676 101.1858749
rclavicle  0 -4.497500157e-015 -2.743230041e-014
rhumerus  -8.029219627 -36.52349472 -34.13380432
rradius  -5.16745672e-007 2.214343908e-008 105.211998
rwrist  -2.867388866e-005 0.1017204151 -178.522995
rhand  -3.081193125e-031 4.240600109 -6.721439838
rfingers  -90 -7.125020027 -90
rthumb  -84.69727325 -9.223480225 -59.92655563
rfemur  -12.16334438 14.72875118 12.24479294
rtibia  -0.4425729811 -1.919702768 18.96960831
rfoot  1.422660589 -23.17982483 -33.55601501
rtoes  4.173572063 19.57271194 -102.2858505
lfemur  -5.006644726 -16.11380768 -22.43953323
ltibia  6.160512447 -0.7882567048 8.862212181
lfoot  0.7788144946 -21.07054138 37.06948471
ltoes  -8.487998962 -18.17665291 -115.5666046
98
root  34.72378047 36.55442966 -14.25657948 10.06085491 -5.874604702 3.790202856
lowerback  -7.728970528 -0.707676053 -1.422730207
upperback  -4.235199928 -0.3075670004 -4.16023016
thorax  -0.05724810064 0.04266300052 -3.522670031
lowerneck  -4.289350033 -15.41800022 -10.7407999
upperneck  8.850250244 -21.05900002 11.32180023
head  5.702750206 -10.07349968 3.471590042
lclavicle  0 -4.497500157e-015 -2.743230041e-014
lhumerus  -48.24649811 29.39699936 62.32440186
lradius  0.006620147731 -6.507048965e-006 29.86529922
lwrist  4.824992743e-007 -3.790274832e-007 -28.89290047
lhand  -3.520417595e-031 -36.9980011 -10.61380005
lfingers  90 7.125020027 -90
lthumb  94.84887695 -25.44721985 101.1682587
rclavicle  0 -4.497500157e-015 -2.743230041e-014
rhumerus  -6.603700638 -36.84809494 -34.01530075
rradius  -5.16745672e-007 2.214343908e-008 103.9540024
rwrist  -2.867388866e-005 0.1017204151 -178.352005
rhand  -3.082964053e-031 4.238279819 -6.695139885
rfingers  -90 -7.125020027 -90
rthumb  -84.68448639 -9.246095657 -59.92666626
rfemur  -12.14818192 14.7675724 12.23323822
rtibia  -0.4372537136 -1.926953793 18.91650772
rfoot  1.429623127 -23.16232109 -33.61924362
rtoes  4.174742222 19.57316589 -102.2893448
lfemur  -5.083363533 -16.07651711 -22.40668488
ltibia  6.114907742 -0.7541288137 8.962319374
lfoot  0.8176484704 -21.2002449 37.07572556
ltoes  -8.468053818 -18.18570518 -115.5026855
99
root  34.72409887 36.55435457 -14.25243288 10.0773983 -5.846093178 3.799719572
lowerback  -7.699259758 -0.7067710161 -1.384140253
upperback  -4.199790001 -0.3125970066 -4.171740055
thorax  -0.03771600127 0.0431211032 -3.556570053
lowerneck  -4.413229942 -15.45440006 -10.82209969
upperneck  8.861180305 -21.10560036 11.39120007
head  5.748149872 -10.08950043 3.484980106
lclavicle  0 -4.497500157e-015 -2.743230041e-014
lhumerus  -48.21920013 29.55970001 62.27180099
lradius  0.006620147731 -6.507048965e-006 29.83500099
lwrist  4.824992743e-007 -3.790274832e-007 -28.95779991
lhand  -3.516419995e-031 -37.04859924 -10.65470028
lfingers  90 7.125020027 -90
lthumb  94.88130188 -25.48556709 101.2260132
rclavicle  0 -4.497500157e-015 -2.743230041e-014
rhumerus  -5.080338955 -37.27420044 -34.08420181
rradius  -5.16745672e-007 2.214343908e-008 102.6200027
rwrist  -2.867388866e-005 0.1017204151 -178.3139954
rhand  -3.085210839e-031 4.305830002 -6.661159992
rfingers  -90 -7.125020027 -90
rthumb  -84.65094757 -9.279388428 -59.85798264
rfemur  -12.13352203 14.74200916 12.2192173
rtibia  -0.4354073405 -1.958777308 18.87521553
rfoot  1.433048606 -23.20166016 -33.64002228
rtoes  4.164597988 19.57361603 -102.2590714
lfemur  -5.187585831 -16.1240654 -22.38070869
ltibia  6.049099922 -0.772480011 9.107460022
lfoot  0.8198268414 -21.22795868 37.02991867
ltoes  -8.454794884 -18.19170761 -115.4602127
